# xmcd
#
# Track frame offsets:
#	150
#	91180
#	118241
#	132544
#	153170
#	168230
#	181618
#	195540
#	208333
#	222507
#
# Disc length: 3117 seconds
#
# Revision: 0
# Processed by: cddbd v1.5.2PL0 Copyright (c) Steve Scherf et al.
# Submitted via: dBpowerAMP V4.0
#
DISCID=8c0c2b0a
DTITLE=Dr. K. Gyasi and his Noble Kings - Sikyi Highlife II
DYEAR=1900
DGENRE=
TTITLE0=Medley- Gye da a mewuo, etc
TTITLE1=Mansa wo mma
TTITLE2=Bue me ntem
TTITLE3=Awaree mu nsem
TTITLE4=Edo odo yewu (old version)
TTITLE5=Nsa menim nom
TTITLE6=Ekanee na minyimye
TTITLE7=Obiara Beka Onka
TTITLE8=Manso nye (short version)
TTITLE9=Abrabo ye bona
EXTD=
EXTT0=
EXTT1=
EXTT2=
EXTT3=
EXTT4=
EXTT5=
EXTT6=
EXTT7=
EXTT8=
EXTT9=
PLAYORDER=
